<svg xmlns="http://www.w3.org/2000/svg" xmlns:xlink="http://www.w3.org/1999/xlink" preserveAspectRatio="xMidYMid meet" version="1.0" viewBox="-25.4 0.0 1539.9 346.8" zoomAndPan="magnify" style="fill: rgb(0, 0, 0);" original_string_length="5441" width="246.6456686609884px" height="55.575355211274655px"><g><g id="__id0_sv4oiehycf"><path d="M1482.2,299.8c-32.3-47-47-41.1-38.2-55.8c8.8-14.7,29.4-41.1,29.4-64.7c0-23.5-5.9-17.6-2.9-35.3 c2.9-17.6,26.5-5.9,2.9-17.6c-3-1.5-6.1-2.9-9.2-4.2c8.6,2.5,14.5,0.5,12.2-13.5c-5.9-35.3-5.9-35.3-5.9-47V32.3 c0-8.8,8.8-20.6-11.8-20.6c-20.6,0-2.9,0-88.2-5.9c-76.3-5.2-444.3-1.1-634.6,6.1c-10,0.4-19.4,0.8-28.3,1.2 c-11.1,0.5-21.4,1-30.6,1.5c-94.9,5.3-308.4-1-464.9-6.9C202.4,7.4,193,7,183.8,6.7C92.9,3.1,27.5,0,27.5,0 c0,14.7-17.6,23.5-2.9,26.4c14.7,2.9,2.9,2.9,17.6,11.8C56.9,47,56.9,47,83.3,52.9c26.5,5.9,55.8,14.7,23.5,14.7 c-32.3,0-41.1-2.9-58.8,0S9.9,70.5,9.9,70.5c2.9,14.7,2.9,11.8,5.9,26.4c2.9,14.7,2.9,5.9,5.9,23.5c2.9,17.6,0,0,2.9,17.6 c2.9,17.6,8.8-5.9,2.9,17.6c-5.9,23.5-52.9,0-8.8,35.3c44.1,35.3,44.1,17.6,44.1,35.3s-8.8-14.7-8.8,23.5c0,38.2-8.8,38.2-8.8,38.2 s-32.3,32.3-8.8,26.4c21-5.2,257.6,15.3,351.9,15.6c11.3,0,20.6-0.2,27.2-0.9c0.3,0,0.5,0,0.8-0.1c62.9-5.9,296.4-17.5,387.1-2.9 c91.1,14.7,314.5-5.9,382.1-2.9c67.6,2.9,173.4,0,202.8,0h76.4C1488.1,323.3,1514.5,346.8,1482.2,299.8z M1426.3,105.8 c4.3-1.5,17.9,7.8,29.9,13.3C1437.1,112,1419.6,108,1426.3,105.8z" style="fill: rgb(247, 201, 72);"/></g><g id="__id1_sv4oiehycf"><circle cx="83.7" cy="168.6" r="14.2" style="fill: rgb(247, 201, 72);"/></g><g id="__id2_sv4oiehycf"><circle cx="207.1" cy="84.9" r="14.2" style="fill: rgb(247, 201, 72);"/></g><g id="__id3_sv4oiehycf"><path d="M225.9,263.5c-7.7,0-14.2,6.5-14.2,14.2c0,7.7,6.5,14.2,14.2,14.2c7.7,0,14.2-6.5,14.2-14.2 C240,270,233.5,263.5,225.9,263.5z" style="fill: rgb(247, 201, 72);"/></g><g id="__id4_sv4oiehycf"><path d="M396.7,153.3c-7.7,0-14.2,6.5-14.2,14.2c0,7.7,6.5,14.2,14.2,14.2c7.7,0,14.2-6.5,14.2-14.2 C410.8,159.8,404.4,153.3,396.7,153.3z" style="fill: rgb(247, 201, 72);"/></g><g id="__id5_sv4oiehycf"><path d="M526.1,46.9c-0.7-2.4-1.9-4.5-3.6-6.3c-1-0.7-1.9-1.5-2.9-2.2c-2.2-1.3-4.6-1.9-7.2-1.9h-1.1 c-2-0.1-3.8,0.3-5.5,1.2c-1.8,0.6-3.3,1.5-4.6,2.9c-1.4,1.3-2.4,2.8-2.9,4.6c-0.9,1.7-1.3,3.5-1.2,5.5c0.2,1.3,0.3,2.5,0.5,3.8 c0.7,2.4,1.9,4.5,3.6,6.3c1,0.7,1.9,1.5,2.9,2.2c2.2,1.3,4.6,1.9,7.2,1.9h1.1c2,0.1,3.8-0.3,5.5-1.2c1.8-0.6,3.3-1.5,4.6-2.9 c1.4-1.3,2.4-2.8,2.9-4.6c0.9-1.7,1.3-3.5,1.2-5.5C526.4,49.4,526.2,48.2,526.1,46.9z" style="fill: rgb(247, 201, 72);"/></g><g id="__id6_sv4oiehycf"><path d="M610.5,276.8c-7.7,0-14.2,6.5-14.2,14.2c0,7.7,6.5,14.2,14.2,14.2c7.7,0,14.2-6.5,14.2-14.2 C624.6,283.2,618.2,276.8,610.5,276.8z" style="fill: rgb(247, 201, 72);"/></g><g id="__id7_sv4oiehycf"><path d="M757,161c-7.7,0-14.2,6.5-14.2,14.2c0,7.7,6.5,14.2,14.2,14.2c7.7,0,14.2-6.5,14.2-14.2 C771.2,167.5,764.7,161,757,161z" style="fill: rgb(247, 201, 72);"/></g><g id="__id8_sv4oiehycf"><path d="M945.2,40.8c-0.6-1.8-1.5-3.3-2.9-4.6c-1.3-1.4-2.8-2.4-4.6-2.9c-1.7-0.9-3.5-1.3-5.5-1.2 c-1.3,0.2-2.5,0.3-3.8,0.5c-2.4,0.7-4.5,1.9-6.3,3.6c-0.7,1-1.5,1.9-2.2,2.9c-1.3,2.2-1.9,4.6-1.9,7.2v1.1c-0.1,2,0.3,3.8,1.2,5.5 c0.6,1.8,1.5,3.3,2.9,4.6c1.3,1.4,2.8,2.4,4.6,2.9c1.7,0.9,3.5,1.3,5.5,1.2c1.3-0.2,2.5-0.3,3.8-0.5c2.4-0.7,4.5-1.9,6.3-3.6 c0.7-1,1.5-1.9,2.2-2.9c1.3-2.2,1.9-4.6,1.9-7.2v-1.1C946.5,44.3,946.1,42.5,945.2,40.8z" style="fill: rgb(247, 201, 72);"/></g><g id="__id9_sv4oiehycf"><path d="M911.3,276.8c-7.7,0-14.2,6.5-14.2,14.2c0,7.7,6.5,14.2,14.2,14.2c7.7,0,14.2-6.5,14.2-14.2 C925.5,283.2,919,276.8,911.3,276.8z" style="fill: rgb(247, 201, 72);"/></g><g id="__id10_sv4oiehycf"><path d="M1093.2,175.4c-7.7,0-14.2,6.5-14.2,14.2c0,7.7,6.5,14.2,14.2,14.2c7.7,0,14.2-6.5,14.2-14.2 C1107.3,181.9,1100.8,175.4,1093.2,175.4z" style="fill: rgb(247, 201, 72);"/></g><g id="__id11_sv4oiehycf"><path d="M1235.1,288.8c-0.6-1.8-1.5-3.3-2.9-4.6c-1.3-1.4-2.8-2.4-4.6-2.9c-1.7-0.9-3.5-1.3-5.5-1.2 c-1.3,0.2-2.5,0.3-3.8,0.5c-2.4,0.7-4.5,1.9-6.3,3.6c-0.7,1-1.5,1.9-2.2,2.9c-1.3,2.2-1.9,4.6-1.9,7.2v1.1c-0.1,2,0.3,3.8,1.2,5.5 c0.6,1.8,1.5,3.3,2.9,4.6c1.3,1.4,2.8,2.4,4.6,2.9c1.7,0.9,3.5,1.3,5.5,1.2c1.3-0.2,2.5-0.3,3.8-0.5c2.4-0.7,4.5-1.9,6.3-3.6 c0.7-1,1.5-1.9,2.2-2.9c1.3-2.2,1.9-4.6,1.9-7.2v-1.1C1236.3,292.3,1235.9,290.5,1235.1,288.8z" style="fill: rgb(247, 201, 72);"/></g><g id="__id12_sv4oiehycf"><circle cx="1384.1" cy="198.4" r="14.2" style="fill: rgb(247, 201, 72);"/></g><g id="__id13_sv4oiehycf"><path d="M1247.4,39.8c-7.7,0-14.2,6.5-14.2,14.2c0,7.7,6.5,14.2,14.2,14.2c7.7,0,14.2-6.5,14.2-14.2 C1261.6,46.3,1255.1,39.8,1247.4,39.8z" style="fill: rgb(247, 201, 72);"/></g><g id="__id14_sv4oiehycf"><path d="M736,13.2v1.1c0,2.6-0.7,4.9-1.9,7.2c-0.7,1-1.5,1.9-2.2,2.9c-1.8,1.8-3.9,3-6.3,3.7c-1.2,0.2-2.5,0.3-3.8,0.5 c-2,0.1-3.8-0.3-5.5-1.2c-1.8-0.6-3.3-1.5-4.6-2.9c-1.4-1.3-2.4-2.8-2.9-4.6c-0.9-1.7-1.3-3.5-1.2-5.5v-1.1 c8.9-0.4,18.4-0.8,28.3-1.2C736,12.4,736,12.8,736,13.2z" style="fill: rgb(247, 201, 72);"/></g><g id="__id15_sv4oiehycf"><path d="M416.4,326.2v1.1c0,0.6,0,1.2-0.1,1.8c-0.3,0-0.6,0-0.8,0.1c-6.6,0.6-15.9,0.9-27.2,0.9 c-0.2-0.9-0.3-1.8-0.2-2.7v-1.1c0-2.6,0.6-4.9,1.9-7.1c0.7-1,1.5-1.9,2.2-2.9c1.8-1.8,3.9-3,6.2-3.7l3.8-0.5c2-0.1,3.8,0.3,5.5,1.2 c1.8,0.6,3.3,1.5,4.6,2.9c1.4,1.3,2.4,2.8,2.9,4.6C416,322.4,416.4,324.2,416.4,326.2z" style="fill: rgb(247, 201, 72);"/></g><g id="__id16_sv4oiehycf"><path d="M212.1,7.8c-0.2,7.5-6.6,13.7-14.2,13.7c-7.7,0-14.2-6.5-14.2-14.2c0-0.2,0-0.4,0-0.6 C193,7,202.4,7.4,212.1,7.8z" style="fill: rgb(247, 201, 72);"/></g></g></svg>