<svg xmlns="http://www.w3.org/2000/svg" xmlns:xlink="http://www.w3.org/1999/xlink" clip-rule="evenodd" fill-rule="evenodd" image-rendering="optimizeQuality" preserveAspectRatio="xMidYMid meet" shape-rendering="geometricPrecision" text-rendering="geometricPrecision" version="1.0" viewBox="3692.6 13431.9 13614.7 2836.1" zoomAndPan="magnify" style="fill: #202020" original_string_length="8092" width="876.5166666666667px" height="182.5781319622965px"><g><g><g id="__id17_s7pregqz5"><path d="M14651.4 15360.89c-20.51,-240.83 -25.1,-452.52 -58.04,-692.36 -19.39,-141.2 -120.04,-513.1 -114.45,-581.29 -50.42,477.47 107.63,1462.6 -267.95,1800.27 -245.81,-248.12 -268.24,-651.45 -275.7,-1063.39l-34.92 48.35c-149.67,265.79 -144.56,629.09 -153.44,923.9 -303.9,-297.2 -209.61,-890.05 -257.11,-1362.41 -43.76,137.52 -115.14,283.05 -164.94,438.38 -49.52,154.49 -72.29,359.83 -134.11,496.61 -66.19,-562.78 32.9,-834.56 136.93,-1319.3 -140.27,100.97 -273.63,382.25 -342.49,552.69 -42.19,104.42 -84.03,219.86 -115.95,341.14 -14.57,55.33 -23.76,112.2 -38.26,175.13 -6.51,28.26 -12.85,61.87 -22.69,88.06l-60.14 111.34c-20.23,-266.68 -60.19,-807.41 -272.11,-1019.08 -57.88,1060.39 -129.42,732.12 -220.62,1227.52 -99.37,-642.79 120.15,-1058.92 -326.97,-1692.54 29.08,574.96 229.6,1202.21 -100.81,1845.67 -23.58,-382.6 8.33,-940.8 -160.08,-1235.24 -8.67,481.06 22.34,1073.7 -278.81,1389.13l-40.38 -32.63c-119.83,-116.48 -192.36,-255.41 -265.4,-406.3 -39.92,-82.45 -82.3,-177.82 -107.28,-281.93 -12.99,-54.11 -16.58,-97.12 -25.66,-143.65l-54.81 -176.72 -135.99 946.01c-287.06,-860.33 -246.15,-956.94 -1.08,-1819.91 -649.89,341.69 -452.79,1155.93 -639.4,1618.38 -61.71,-170.64 -82.81,-557.66 -150.99,-791.1 -60.97,-208.75 -167.88,-498.6 -347.36,-617.77 46.06,260.61 125.87,457.15 147.92,748.05 10.68,140.85 9.64,278.21 -5.43,418.73 -5.31,49.51 -14.98,128.14 -26.47,181.66 -6.51,30.37 -13.8,63.87 -23.48,88.29 -39.18,98.88 -21.79,55.78 -61.27,103.79 -43.76,-455.33 -46.14,-1060.86 -304.88,-1363.73 63.04,442.83 154.7,1089.01 -140.28,1420.33l-48.73 -978.66c2.09,383.01 -140.69,929.47 -375.7,1113.14 -220.85,-568.32 -162.22,-675.58 -158.42,-1285.13 -153.67,230.2 -399.19,600.33 -391.25,956.09 -55.01,-493.68 -18.58,-1356.93 -226.16,-1748.03 -29.3,527.12 37.58,1320.44 -284.74,1691.51 -56.55,-558.19 -37.02,-1061.55 -238.22,-1550.4 14.5,299.29 61.42,560.44 39.05,884.04 -20.5,296.49 -119.46,524.39 -181.35,759.89 -46.07,-56.33 -20.68,-6.2 -49.17,-93.14l-29.6 -315.2c-9.34,-157.81 -6.54,-287.57 -64.53,-399.05 -30.11,358.24 -140.74,921.42 -359.77,1100.38 -199.68,-304.02 -169.45,-924.3 -198.55,-1320.5 -9.77,77.04 -79.99,285.94 -103.81,425.18 -28.19,164.82 -26.88,354.75 -69.62,507.8 -90.8,-781.52 16.03,-953.8 120.87,-1651.18 -402.37,353.96 -483.45,1337.42 -555.87,1983.03l-73.55 -191.62c-43.61,-167.76 -70,-360.09 -163.82,-507.87l-52.72 -66.63c6.87,265.91 52.7,526.97 -53.58,751.27 -40.43,-357.16 -58.63,-749.01 -232.86,-1078.74l-106.17 -132.38c36.52,598.91 74.81,901.86 -166.29,1392.16 -241.77,-297.46 -143.39,-1190.37 -162.13,-1607.41 -14.32,104.66 -110.46,355.69 -140.64,528.96 -39.16,224.82 -38.76,443.98 -73.66,670.08 6.2,-131.04 -189.53,-851.08 -244.1,-1020.84 -132.65,-412.69 -215.65,-558.55 -429,-852.24 85.91,256.53 223.13,476.6 309.96,796.56 78.96,290.96 142.08,697.68 94.61,1017.89 -224.72,-446.41 -351.02,-970.21 -738.5,-1209.82 303.58,911.98 446.44,585.52 526.49,1966.59l12902.96 7.37c35.52,-173.04 -17.92,-454.98 -12.75,-651.92 6.71,-255.02 49.05,-374.5 92.18,-597.14 -232.43,138.28 -274.35,332.04 -356.24,557.01 -2.92,8 -8.64,20.62 -11.12,27.08 -2.5,6.51 -6.95,18.46 -11.67,27.09 -70.39,-490.14 -27.11,-528.48 68.99,-962.72 -380.38,358.99 -290.83,586.38 -466.26,854.96 -65.87,-524.25 8.53,-856.77 40.02,-1357.71 -187.97,262.35 -306.59,841.49 -374.94,1229.9 -55.04,-144.69 -68.65,-627.6 -111.2,-843.28 -49.15,-249.14 -126.43,-514.12 -243.31,-691.77 15.36,261.74 97.04,555.56 117.46,841.87 22.51,315.51 -44.65,700.16 -31.32,898.28 -44.56,-426.99 -4.01,-1056.96 -237.46,-1361.89 -31.46,484.67 49.9,1164.88 -212.93,1525.85 -7.63,-345.76 40.72,-967.41 -174.47,-1285.45 -4.54,363.12 23.83,722.16 -164.68,991.16 -62.08,-731.23 14.12,-1517.9 -390.98,-2037.46 65.67,753.32 146.38,1205.63 -95.85,1928.96z" style="fill: #202020"/></g><g id="__id18_s7pregqz5"><path d="M14545.56 15360.89c-20.51,-240.83 -25.1,-452.52 -58.04,-692.36 -19.39,-141.2 -120.04,-513.1 -114.45,-581.29 -50.42,477.47 107.63,1462.6 -267.95,1800.27 -245.81,-248.12 -268.24,-651.45 -275.7,-1063.39l-34.92 48.35c-149.67,265.79 -144.56,629.09 -153.44,923.9 -303.9,-297.2 -209.61,-890.05 -257.11,-1362.41 -43.76,137.52 -115.14,283.05 -164.94,438.38 -49.52,154.49 -72.29,359.83 -134.11,496.61 -66.19,-562.78 32.9,-834.56 136.93,-1319.3 -140.27,100.97 -273.63,382.25 -342.49,552.69 -42.19,104.42 -84.03,219.86 -115.95,341.14 -14.57,55.33 -23.76,112.2 -38.26,175.13 -6.51,28.26 -12.85,61.87 -22.69,88.06l-60.14 111.34c-20.23,-266.68 -60.19,-807.41 -272.11,-1019.08 -57.88,1060.39 -129.42,732.12 -220.62,1227.52 -99.37,-642.79 120.15,-1058.92 -326.97,-1692.54 29.08,574.96 229.6,1202.21 -100.81,1845.67 -23.58,-382.6 8.33,-940.8 -160.08,-1235.24 -8.67,481.06 22.34,1073.7 -278.81,1389.13l-40.38 -32.63c-119.83,-116.48 -192.36,-255.41 -265.4,-406.3 -39.92,-82.45 -82.3,-177.82 -107.28,-281.93 -12.99,-54.11 -16.58,-97.12 -25.66,-143.65l-54.81 -176.72 -135.99 946.01c-287.06,-860.33 -246.15,-956.94 -1.08,-1819.91 -649.89,341.69 -452.79,1155.93 -639.4,1618.38 -61.71,-170.64 -82.81,-557.66 -150.99,-791.1 -60.97,-208.75 -167.88,-498.6 -347.36,-617.77 46.06,260.61 125.87,457.15 147.92,748.05 10.68,140.85 9.64,278.21 -5.43,418.73 -5.31,49.51 -14.98,128.14 -26.47,181.66 -6.51,30.37 -13.8,63.87 -23.48,88.29 -39.18,98.88 -21.79,55.78 -61.27,103.79 -43.76,-455.33 -46.14,-1060.86 -304.88,-1363.73 63.04,442.83 154.7,1089.01 -140.28,1420.33l-48.73 -978.66c2.09,383.01 -140.69,929.47 -375.7,1113.14 -220.85,-568.32 -162.22,-675.58 -158.42,-1285.13 -153.67,230.2 -399.19,600.33 -391.25,956.09 -55.01,-493.68 -18.58,-1356.93 -226.16,-1748.03 -29.3,527.12 37.58,1320.44 -284.74,1691.51 -56.55,-558.19 -37.02,-1061.55 -238.22,-1550.4 14.5,299.29 61.42,560.44 39.05,884.04 -20.5,296.49 -119.46,524.39 -181.35,759.89 -46.07,-56.33 -20.68,-6.2 -49.17,-93.14l-29.6 -315.2c-9.34,-157.81 -6.54,-287.57 -64.53,-399.05 -30.11,358.24 -140.74,921.42 -359.77,1100.38 -199.68,-304.02 -169.45,-924.3 -198.55,-1320.5 -9.77,77.04 -79.99,285.94 -103.81,425.18 -28.19,164.82 -26.88,354.75 -69.62,507.8 -90.8,-781.52 16.03,-953.8 120.87,-1651.18 -402.37,353.96 -483.45,1337.42 -555.87,1983.03l-73.55 -191.62c-43.61,-167.76 -70,-360.09 -163.82,-507.87l-52.72 -66.63c6.87,265.91 52.7,526.97 -53.58,751.27 -40.43,-357.16 -58.63,-749.01 -232.86,-1078.74l-106.17 -132.38c36.52,598.91 74.81,901.86 -166.29,1392.16 -241.77,-297.46 -143.39,-1190.37 -162.13,-1607.41 -14.32,104.66 -110.46,355.69 -140.64,528.96 -39.16,224.82 -38.76,443.98 -73.66,670.08 6.2,-131.04 -189.53,-851.08 -244.1,-1020.84 -132.65,-412.69 -215.65,-558.55 -429,-852.24 85.91,256.53 223.13,476.6 309.96,796.56 78.96,290.96 142.08,697.68 94.61,1017.89 -224.72,-446.41 -351.02,-970.21 -738.5,-1209.82 303.58,911.98 446.44,585.52 526.49,1966.59l12902.96 7.37c35.52,-173.04 -17.92,-454.98 -12.75,-651.92 6.71,-255.02 49.05,-374.5 92.18,-597.14 -232.43,138.28 -274.35,332.04 -356.24,557.01 -2.92,8 -8.64,20.62 -11.12,27.08 -2.5,6.51 -6.95,18.46 -11.67,27.09 -70.39,-490.14 -27.11,-528.48 68.99,-962.72 -380.38,358.99 -290.83,586.38 -466.26,854.96 -65.87,-524.25 8.53,-856.77 40.02,-1357.71 -187.97,262.35 -306.59,841.49 -374.94,1229.9 -55.04,-144.69 -68.65,-627.6 -111.2,-843.28 -49.15,-249.14 -126.43,-514.12 -243.31,-691.77 15.36,261.74 97.04,555.56 117.46,841.87 22.51,315.51 -44.65,700.16 -31.32,898.28 -44.56,-426.99 -4.01,-1056.96 -237.46,-1361.89 -31.46,484.67 49.9,1164.88 -212.93,1525.85 -7.63,-345.76 40.72,-967.41 -174.47,-1285.45 -4.54,363.12 23.83,722.16 -164.68,991.16 -62.08,-731.23 14.12,-1517.9 -390.98,-2037.46 65.67,753.32 146.38,1205.63 -95.85,1928.96z" style="fill: #202020"/></g></g></g></svg>